<svg width="36" height="35" viewBox="0 0 36 35" fill="none" xmlns="http://www.w3.org/2000/svg">
<g id="arrow_circle_down">
<mask id="mask0_426_1326" style="mask-type:alpha" maskUnits="userSpaceOnUse" x="0" y="0" width="36" height="35">
<rect id="Bounding box" x="35.5" y="35" width="35" height="35" transform="rotate(-180 35.5 35)" fill="#D9D9D9"/>
</mask>
<g mask="url(#mask0_426_1326)">
<path id="arrow_circle_down_2" d="M18 11.6667L12.1667 17.5L14.2084 19.5417L16.5417 17.2083L16.5417 23.3333H19.4584V17.2083L21.7917 19.5417L23.8334 17.5L18 11.6667ZM18 2.91667C20.0174 2.91667 21.9132 3.29948 23.6875 4.06511C25.4618 4.83073 27.0052 5.86979 28.3177 7.18229C29.6302 8.49479 30.6693 10.0382 31.4349 11.8125C32.2006 13.5868 32.5834 15.4826 32.5834 17.5C32.5834 19.5174 32.2006 21.4132 31.4349 23.1875C30.6693 24.9618 29.6302 26.5052 28.3177 27.8177C27.0052 29.1302 25.4618 30.1693 23.6875 30.9349C21.9132 31.7005 20.0174 32.0833 18 32.0833C15.9827 32.0833 14.0868 31.7005 12.3125 30.9349C10.5382 30.1693 8.99483 29.1302 7.68233 27.8177C6.36983 26.5052 5.33077 24.9618 4.56515 23.1875C3.79952 21.4132 3.41671 19.5174 3.41671 17.5C3.41671 15.4826 3.79952 13.5868 4.56515 11.8125C5.33077 10.0382 6.36983 8.49479 7.68233 7.18229C8.99483 5.86979 10.5382 4.83073 12.3125 4.06511C14.0868 3.29948 15.9827 2.91667 18 2.91667ZM18 5.83334C14.7431 5.83334 11.9844 6.96354 9.724 9.22396C7.46358 11.4844 6.33338 14.2431 6.33338 17.5C6.33338 20.7569 7.46358 23.5156 9.724 25.776C11.9844 28.0365 14.7431 29.1667 18 29.1667C21.257 29.1667 24.0157 28.0365 26.2761 25.776C28.5365 23.5156 29.6667 20.7569 29.6667 17.5C29.6667 14.2431 28.5365 11.4844 26.2761 9.22396C24.0157 6.96354 21.257 5.83334 18 5.83334Z" fill="#808080"/>
</g>
</g>
</svg>
