<svg width="33" height="32" viewBox="0 0 33 32" fill="none" xmlns="http://www.w3.org/2000/svg">
<g id="cake" clip-path="url(#clip0_516_1506)">
<g id="Clip path group">
<mask id="mask0_516_1506" style="mask-type:luminance" maskUnits="userSpaceOnUse" x="0" y="0" width="33" height="32">
<g id="clip0_54_255">
<path id="Vector" d="M32.125 0H0.125V32H32.125V0Z" fill="white"/>
</g>
</mask>
<g mask="url(#mask0_516_1506)">
<g id="Group">
<g id="Clip path group_2">
<mask id="mask1_516_1506" style="mask-type:luminance" maskUnits="userSpaceOnUse" x="0" y="0" width="32" height="32">
<g id="clip1_54_255">
<path id="Vector_2" d="M31.825 0H0.125V32H31.825V0Z" fill="white"/>
</g>
</mask>
<g mask="url(#mask1_516_1506)">
<g id="Group_2">
<path id="Vector_3" fill-rule="evenodd" clip-rule="evenodd" d="M5.825 5C5.325 2.4 7.325 0 9.925 0C12.225 0 14.125 1.9 14.125 4.2V9.4C14.725 9.4 15.325 9.3 15.925 9.3C16.525 9.3 17.025 9.3 17.625 9.4V4.2C17.625 1.9 19.525 0 21.825 0C24.425 0 26.425 2.4 26.025 5L24.925 11.1C28.825 12.8 31.825 15.8 31.825 19.5V21.8C31.825 24.9 29.825 27.5 26.925 29.2C24.025 31 20.225 32 15.925 32C11.625 32 7.825 31 4.925 29.2C2.125 27.5 0.125 24.9 0.125 21.8V19.5C0.125 15.8 3.025 12.8 6.925 11.1L5.825 5ZM23.425 11.9L24.725 4.7C25.025 2.9 23.725 1.2 21.825 1.2C20.225 1.2 18.925 2.5 18.925 4.1V10.7C18.525 10.6 18.025 10.6 17.625 10.6C17.025 10.6 16.525 10.5 15.925 10.5C15.325 10.5 14.725 10.5 14.125 10.6C13.725 10.6 13.225 10.7 12.825 10.7V4.2C12.825 2.6 11.525 1.3 9.925 1.3C8.125 1.3 6.725 3 7.125 4.8L8.425 12C4.225 13.6 1.425 16.4 1.425 19.6V21.9C1.425 26.8 7.925 30.8 15.925 30.8C23.925 30.8 30.425 26.8 30.425 21.9V19.6C30.525 16.3 27.725 13.5 23.425 11.9Z" fill="#633001"/>
<path id="Vector_4" d="M30.5249 21.8C30.5249 26.7 24.0249 30.7 16.0249 30.7C8.0249 30.7 1.5249 26.7 1.5249 21.8V19.5H30.6249V21.8H30.5249Z" fill="#FEDC90"/>
<path id="Vector_5" fill-rule="evenodd" clip-rule="evenodd" d="M7.1249 4.80005C6.7249 3.00005 8.12491 1.30005 9.9249 1.30005C11.5249 1.30005 12.8249 2.60005 12.8249 4.20005V10.8C13.8249 10.7 14.8249 10.6 15.9249 10.6C16.9249 10.6 17.9249 10.7 18.9249 10.8V4.20005C18.9249 2.60005 20.2249 1.30005 21.8249 1.30005C23.6249 1.30005 25.0249 3.00005 24.7249 4.80005L23.4249 12C27.6249 13.6 30.5249 16.4 30.5249 19.6C30.5249 24.5001 24.0249 28.5 16.0249 28.5C8.0249 28.5 1.5249 24.5001 1.5249 19.6C1.5249 16.4 4.3249 13.6 8.5249 12L7.1249 4.80005Z" fill="#D1884F"/>
<path id="Vector_6" d="M11.9251 18.9C11.9251 20.2 11.2251 21.3 10.3251 21.3C9.4251 21.3 8.7251 20.2 8.7251 18.9C8.7251 17.6 9.4251 16.5 10.3251 16.5C11.2251 16.5 11.9251 17.6 11.9251 18.9Z" fill="#633001"/>
<path id="Vector_7" d="M23.0252 18.9C23.0252 20.2 22.3251 21.3 21.4251 21.3C20.5251 21.3 19.8252 20.2 19.8252 18.9C19.8252 17.6 20.5251 16.5 21.4251 16.5C22.3251 16.5 23.0252 17.6 23.0252 18.9Z" fill="#633001"/>
</g>
</g>
</g>
</g>
</g>
</g>
</g>
<defs>
<clipPath id="clip0_516_1506">
<rect width="32" height="32" fill="white" transform="translate(0.125)"/>
</clipPath>
</defs>
</svg>
