<svg width="41" height="40" viewBox="0 0 41 40" fill="none" xmlns="http://www.w3.org/2000/svg">
<mask id="mask0_1181_3261" style="mask-type:alpha" maskUnits="userSpaceOnUse" x="0" y="0" width="41" height="40">
<rect x="0.854126" y="0.166504" width="39.6667" height="39.6667" fill="#D9D9D9"/>
</mask>
<g mask="url(#mask0_1181_3261)">
<path d="M18.3736 27.6027L30.0256 15.9506L27.7118 13.6368L18.3736 22.9749L13.6631 18.2645L11.3493 20.5784L18.3736 27.6027ZM20.6874 36.5277C18.4011 36.5277 16.2525 36.0939 14.2416 35.2262C12.2307 34.3585 10.4815 33.1809 8.99404 31.6934C7.50654 30.2059 6.32894 28.4567 5.46123 26.4458C4.59352 24.4349 4.15967 22.2863 4.15967 19.9999C4.15967 17.7136 4.59352 15.565 5.46123 13.5541C6.32894 11.5432 7.50654 9.79404 8.99404 8.30654C10.4815 6.81904 12.2307 5.64144 14.2416 4.77373C16.2525 3.90602 18.4011 3.47217 20.6874 3.47217C22.9738 3.47217 25.1224 3.90602 27.1333 4.77373C29.1442 5.64144 30.8934 6.81904 32.3809 8.30654C33.8684 9.79404 35.046 11.5432 35.9137 13.5541C36.7814 15.565 37.2152 17.7136 37.2152 19.9999C37.2152 22.2863 36.7814 24.4349 35.9137 26.4458C35.046 28.4567 33.8684 30.2059 32.3809 31.6934C30.8934 33.1809 29.1442 34.3585 27.1333 35.2262C25.1224 36.0939 22.9738 36.5277 20.6874 36.5277Z" fill="#00B564"/>
</g>
</svg>
