<svg width="24" height="24" viewBox="0 0 24 24" fill="none" xmlns="http://www.w3.org/2000/svg">
<g id="dashboard">
<mask id="mask0_426_1237" style="mask-type:alpha" maskUnits="userSpaceOnUse" x="0" y="0" width="24" height="24">
<rect id="Bounding box" width="24" height="24" fill="#D9D9D9"/>
</mask>
<g mask="url(#mask0_426_1237)">
<path id="dashboard_2" d="M13 9V3H21V9H13ZM3 13V3H11V13H3ZM13 21V11H21V21H13ZM3 21V15H11V21H3ZM5 11H9V5H5V11ZM15 19H19V13H15V19ZM15 7H19V5H15V7ZM5 19H9V17H5V19Z" fill="url(#paint0_linear_426_1237)"/>
</g>
</g>
<defs>
<linearGradient id="paint0_linear_426_1237" x1="12" y1="2.95794" x2="12" y2="20.9579" gradientUnits="userSpaceOnUse">
<stop stop-color="#004795"/>
<stop offset="1" stop-color="#C1D4FF"/>
</linearGradient>
</defs>
</svg>
