<svg width="32" height="26" viewBox="0 0 32 26" fill="none" xmlns="http://www.w3.org/2000/svg">
<g clip-path="url(#clip0_1488_15893)">
<mask id="mask0_1488_15893" style="mask-type:luminance" maskUnits="userSpaceOnUse" x="0" y="0" width="32" height="26">
<path d="M31.5964 0.761963H0V25.238H31.5964V0.761963Z" fill="white"/>
</mask>
<g mask="url(#mask0_1488_15893)">
<path d="M26.7477 2.94169C24.7338 2.01766 22.5743 1.33687 20.3163 0.946948C20.2752 0.939423 20.2342 0.958229 20.213 0.995842C19.9352 1.48982 19.6276 2.13425 19.4122 2.64077C16.9836 2.27719 14.5675 2.27719 12.1887 2.64077C11.9733 2.12299 11.6544 1.48982 11.3755 0.995842C11.3543 0.959484 11.3132 0.940678 11.2721 0.946948C9.01539 1.33562 6.85584 2.01641 4.84075 2.94169C4.8233 2.94922 4.80835 2.96176 4.79842 2.97805C0.702219 9.09769 -0.419903 15.0669 0.130572 20.9621C0.133063 20.991 0.149253 21.0186 0.171671 21.0361C2.87423 23.0208 5.49212 24.2257 8.0614 25.0243C8.10252 25.0369 8.14608 25.0218 8.17225 24.988C8.78001 24.158 9.32178 23.2829 9.78629 22.3626C9.81371 22.3087 9.78754 22.2447 9.73151 22.2234C8.87218 21.8974 8.05392 21.5 7.26682 21.0486C7.20456 21.0123 7.19957 20.9232 7.25685 20.8806C7.42248 20.7565 7.58816 20.6273 7.74632 20.497C7.77494 20.4731 7.81481 20.4681 7.84846 20.4832C13.0194 22.844 18.6176 22.844 23.7275 20.4832C23.7612 20.4669 23.801 20.4719 23.8309 20.4957C23.9891 20.6261 24.1547 20.7565 24.3216 20.8806C24.3789 20.9232 24.3752 21.0123 24.3129 21.0486C23.5258 21.5088 22.7075 21.8974 21.8469 22.2222C21.7909 22.2435 21.766 22.3087 21.7934 22.3626C22.2679 23.2816 22.8097 24.1567 23.4062 24.9867C23.4311 25.0218 23.4759 25.0369 23.5171 25.0243C26.0988 24.2257 28.7167 23.0208 31.4192 21.0361C31.4429 21.0186 31.4579 20.9922 31.4604 20.9634C32.1192 14.1479 30.3569 8.22759 26.7888 2.9793C26.78 2.96176 26.7651 2.94922 26.7477 2.94169ZM10.5585 17.3726C9.00168 17.3726 7.71891 15.9433 7.71891 14.188C7.71891 12.4327 8.9768 11.0034 10.5585 11.0034C12.1526 11.0034 13.4229 12.4453 13.398 14.188C13.398 15.9433 12.1401 17.3726 10.5585 17.3726ZM21.0574 17.3726C19.5006 17.3726 18.2178 15.9433 18.2178 14.188C18.2178 12.4327 19.4757 11.0034 21.0574 11.0034C22.6515 11.0034 23.9218 12.4453 23.8969 14.188C23.8969 15.9433 22.6515 17.3726 21.0574 17.3726Z" fill="#808080"/>
</g>
</g>
<defs>
<clipPath id="clip0_1488_15893">
<rect width="31.5964" height="24.4761" fill="white" transform="translate(0 0.761963)"/>
</clipPath>
</defs>
</svg>
