<svg width="35" height="35" viewBox="0 0 35 35" fill="none" xmlns="http://www.w3.org/2000/svg">
<g id="donut_small">
<mask id="mask0_776_2847" style="mask-type:alpha" maskUnits="userSpaceOnUse" x="0" y="0" width="35" height="35">
<rect id="Bounding box" width="35" height="35" fill="#D9D9D9"/>
</mask>
<g mask="url(#mask0_776_2847)">
<path id="donut_small_2" d="M18.9948 2.98956C22.4705 3.32984 25.4297 4.72133 27.8724 7.16404C30.3151 9.60675 31.7066 12.566 32.0469 16.0416H21.6198C21.401 15.4097 21.0668 14.8567 20.6172 14.3828C20.1675 13.9088 19.6267 13.5625 18.9948 13.3437V2.98956ZM21.9115 6.70831V11.6666C22.1788 11.8854 22.434 12.1163 22.6771 12.3594C22.9201 12.6024 23.151 12.8576 23.3698 13.125H28.3281C27.7448 11.6666 26.8941 10.3785 25.776 9.2604C24.658 8.14234 23.3698 7.29165 21.9115 6.70831ZM16.0781 2.98956V13.3437C15.2031 13.6597 14.4983 14.2005 13.9635 14.9661C13.4288 15.7318 13.1615 16.5764 13.1615 17.5C13.1615 18.4236 13.4288 19.2561 13.9635 19.9974C14.4983 20.7387 15.2031 21.2673 16.0781 21.5833V32.0104C12.3351 31.6458 9.21181 30.0781 6.70833 27.3073C4.20486 24.5364 2.95312 21.2673 2.95312 17.5C2.95312 13.7326 4.20486 10.4635 6.70833 7.69269C9.21181 4.92185 12.3351 3.35415 16.0781 2.98956ZM13.1615 6.70831C10.9497 7.55901 9.18142 8.96873 7.85677 10.9375C6.53212 12.9062 5.86979 15.0937 5.86979 17.5C5.86979 19.9062 6.53212 22.0937 7.85677 24.0625C9.18142 26.0312 10.9497 27.4653 13.1615 28.3646V23.3333C12.2378 22.6285 11.5208 21.7717 11.0104 20.763C10.5 19.7543 10.2448 18.6666 10.2448 17.5C10.2448 16.3333 10.5 15.2456 11.0104 14.237C11.5208 13.2283 12.2378 12.3715 13.1615 11.6666V6.70831ZM21.6198 18.9583H32.0469C31.7066 22.434 30.3151 25.3932 27.8724 27.8359C25.4297 30.2786 22.4705 31.6701 18.9948 32.0104V21.5833C19.6267 21.3646 20.1675 21.0304 20.6172 20.5807C21.0668 20.1311 21.401 19.5903 21.6198 18.9583ZM23.3698 21.875C23.1753 22.1423 22.9505 22.3975 22.6953 22.6406C22.4401 22.8837 22.1788 23.1146 21.9115 23.3333V28.2916C23.3698 27.7083 24.658 26.8576 25.776 25.7396C26.8941 24.6215 27.7448 23.3333 28.3281 21.875H23.3698Z" fill="url(#paint0_linear_776_2847)"/>
</g>
</g>
<defs>
<linearGradient id="paint0_linear_776_2847" x1="17.5" y1="2.98956" x2="17.5" y2="32.0104" gradientUnits="userSpaceOnUse">
<stop stop-color="#00679F"/>
<stop offset="1" stop-color="#041A50"/>
</linearGradient>
</defs>
</svg>
