<svg width="45" height="46" viewBox="0 0 45 46" fill="none" xmlns="http://www.w3.org/2000/svg">
<g id="&#240;&#159;&#166;&#134; icon &#34;Ethereum Cryptocurrency&#34;">
<g id="Group">
<path id="Vector" d="M22.5 45.875C34.9264 45.875 45 35.8014 45 23.375C45 10.9486 34.9264 0.875 22.5 0.875C10.0736 0.875 0 10.9486 0 23.375C0 35.8014 10.0736 45.875 22.5 45.875Z" fill="#627EEA"/>
<g id="Group_2">
<path id="Vector_2" d="M23.2012 6.5V18.9734L33.7438 23.6844L23.2012 6.5Z" fill="white" fill-opacity="0.602"/>
<path id="Vector_3" d="M23.2003 6.5L12.6562 23.6844L23.2003 18.9734V6.5Z" fill="white"/>
<path id="Vector_4" d="M23.2012 31.7677V40.2432L33.7509 25.6477L23.2012 31.7677Z" fill="white" fill-opacity="0.602"/>
<path id="Vector_5" d="M23.2003 40.2432V31.7663L12.6562 25.6477L23.2003 40.2432Z" fill="white"/>
<path id="Vector_6" d="M23.2012 29.8056L33.7438 23.6842L23.2012 18.9761V29.8056Z" fill="white" fill-opacity="0.2"/>
<path id="Vector_7" d="M12.6562 23.6842L23.2003 29.8056V18.9761L12.6562 23.6842Z" fill="white" fill-opacity="0.602"/>
</g>
</g>
</g>
</svg>
