<svg width="25" height="26" viewBox="0 0 25 26" fill="none" xmlns="http://www.w3.org/2000/svg">
<g clip-path="url(#clip0_1488_15890)">
<path d="M12.5001 0.792969C5.59739 0.792969 0 6.38932 0 13.2931C0 18.8159 3.58166 23.5015 8.54833 25.1544C9.17305 25.2701 9.4024 24.8832 9.4024 24.5531C9.4024 24.255 9.39081 23.2703 9.38543 22.2258C5.90789 22.982 5.17408 20.7509 5.17408 20.7509C4.60546 19.3061 3.78617 18.9219 3.78617 18.9219C2.65204 18.1461 3.87166 18.162 3.87166 18.162C5.12689 18.2502 5.78783 19.4502 5.78783 19.4502C6.90271 21.3612 8.71207 20.8087 9.42538 20.4893C9.53757 19.6814 9.86152 19.13 10.219 18.8178C7.44256 18.5017 4.52391 17.4299 4.52391 12.6402C4.52391 11.2755 5.01221 10.1604 5.81184 9.285C5.68205 8.97016 5.25419 7.69879 5.93293 5.97699C5.93293 5.97699 6.98261 5.64103 9.37135 7.2583C10.3685 6.98134 11.4378 6.84244 12.5001 6.83768C13.5624 6.84244 14.6326 6.98134 15.6315 7.2583C18.0174 5.64103 19.0656 5.97699 19.0656 5.97699C19.746 7.69879 19.3179 8.97016 19.1882 9.285C19.9897 10.1604 20.4746 11.2755 20.4746 12.6402C20.4746 17.4413 17.5504 18.4984 14.7669 18.8079C15.2153 19.1958 15.6148 19.9565 15.6148 21.1227C15.6148 22.7952 15.6003 24.1413 15.6003 24.5531C15.6003 24.8857 15.8253 25.2755 16.4589 25.1527C21.4229 23.498 25 18.8141 25 13.2931C25 6.38932 19.4034 0.792969 12.5001 0.792969ZM4.6817 18.5996C4.65416 18.6617 4.55646 18.6804 4.46745 18.6377C4.37679 18.5969 4.32587 18.5123 4.35526 18.45C4.38217 18.386 4.48008 18.3682 4.57054 18.4111C4.66141 18.4518 4.71316 18.5373 4.6817 18.5996ZM5.29656 19.1483C5.23695 19.2035 5.12041 19.1779 5.04133 19.0905C4.95957 19.0034 4.94425 18.8868 5.0047 18.8307C5.06617 18.7755 5.17919 18.8013 5.26116 18.8885C5.34293 18.9767 5.35887 19.0924 5.29656 19.1483ZM5.71838 19.8502C5.64179 19.9034 5.51656 19.8535 5.43914 19.7424C5.36256 19.6312 5.36256 19.4979 5.4408 19.4445C5.51842 19.3911 5.64179 19.4391 5.72025 19.5495C5.79663 19.6625 5.79663 19.7958 5.71838 19.8502ZM6.43177 20.6632C6.36326 20.7388 6.21732 20.7185 6.11051 20.6154C6.00122 20.5146 5.97079 20.3715 6.03952 20.296C6.10886 20.2202 6.25562 20.2415 6.36326 20.3438C6.47172 20.4444 6.50484 20.5885 6.43177 20.6632ZM7.35376 20.9377C7.32354 21.0356 7.18299 21.0801 7.0414 21.0385C6.90002 20.9956 6.8075 20.8809 6.83606 20.782C6.86546 20.6835 7.00663 20.6371 7.14925 20.6816C7.29042 20.7242 7.38315 20.8381 7.35376 20.9377ZM8.40302 21.0541C8.40654 21.1572 8.28648 21.2426 8.13786 21.2445C7.98841 21.2478 7.86752 21.1644 7.86587 21.063C7.86587 20.9588 7.98323 20.8742 8.13268 20.8717C8.28131 20.8688 8.40302 20.9516 8.40302 21.0541ZM9.4338 21.0146C9.45161 21.1152 9.34831 21.2184 9.20073 21.246C9.05562 21.2725 8.92128 21.2104 8.90286 21.1106C8.88485 21.0075 8.99 20.9042 9.1349 20.8775C9.2827 20.8519 9.41497 20.9123 9.4338 21.0146Z" fill="#808080"/>
</g>
<defs>
<clipPath id="clip0_1488_15890">
<rect width="25" height="24.4141" fill="white" transform="translate(0 0.792969)"/>
</clipPath>
</defs>
</svg>
