<svg id="hourglass" width="27" height="34" viewBox="0 0 27 34" fill="none" xmlns="http://www.w3.org/2000/svg">
<path d="M7.07644 30.2222H20.2987V25.2638C20.2987 23.4458 19.6513 21.8894 18.3566 20.5947C17.062 19.3001 15.5056 18.6527 13.6876 18.6527C11.8695 18.6527 10.3131 19.3001 9.01846 20.5947C7.72378 21.8894 7.07644 23.4458 7.07644 25.2638V30.2222ZM0.465332 33.5277V30.2222H3.77089V25.2638C3.77089 23.5835 4.16342 22.0065 4.94849 20.5328C5.73356 19.059 6.82853 17.8814 8.23339 16.9999C6.82853 16.1185 5.73356 14.9409 4.94849 13.4671C4.16342 11.9934 3.77089 10.4164 3.77089 8.73606V3.77772H0.465332V0.472168H26.9098V3.77772H23.6042V8.73606C23.6042 10.4164 23.2117 11.9934 22.4266 13.4671C21.6415 14.9409 20.5466 16.1185 19.1417 16.9999C20.5466 17.8814 21.6415 19.059 22.4266 20.5328C23.2117 22.0065 23.6042 23.5835 23.6042 25.2638V30.2222H26.9098V33.5277H0.465332Z" fill="#9E9E9E"/>
</svg>
