<svg width="24" height="24" viewBox="0 0 24 24" fill="none" xmlns="http://www.w3.org/2000/svg">
    <g id="leaderboard">
        <mask id="mask0_leaderboard" style="mask-type:alpha" maskUnits="userSpaceOnUse" x="0" y="0" width="24" height="24">
            <rect id="BoundingBox" width="24" height="24" fill="#D9D9D9"/>
        </mask>
        <g mask="url(#mask0_leaderboard)">
            <!-- Leaderboard Icon -->
            <path id="leaderboardIcon" d="M12 2C6.486 2 2 6.486 2 12S6.486 22 12 22S22 16.514 22 12S16.514 2 12 2ZM12 18C8.313 18 5 15.687 5 13S8.313 8 12 8S19 5 19 13S8.687 19 13 19S18 8.313 18 8S13 5 13 13S8.687 19 13 19ZM12 6C8.313 6 5 3.313 5 1S8.313 0 12 0S19 5.687 19 1S8.687 19 13 19S18 8.313 18 8S13 5 13 13S8.687 19 13 19Z" fill="url(#paint0_leaderboard)"/>
        </g>
    </g>
    <defs>
        <linearGradient id="paint0_leaderboard" x1="12" y1="2.95794" x2="12" y2="20.9579" gradientUnits="userSpaceOnUse">
            <stop stop-color="#004795"/>
            <stop offset="1" stop-color="#C1D4FF"/>
        </linearGradient>
    </defs>
</svg>