<svg width="25" height="24" viewBox="0 0 25 24" fill="none" xmlns="http://www.w3.org/2000/svg">
<g id="link">
<mask id="mask0_426_531" style="mask-type:alpha" maskUnits="userSpaceOnUse" x="0" y="0" width="25" height="24">
<rect id="Bounding box" x="0.5" y="6.10352e-05" width="24" height="24" fill="#D9D9D9"/>
</mask>
<g mask="url(#mask0_426_531)">
<path id="link_2" d="M11.5 17.0001H7.5C6.11667 17.0001 4.9375 16.5126 3.9625 15.5376C2.9875 14.5626 2.5 13.3834 2.5 12.0001C2.5 10.6167 2.9875 9.43756 3.9625 8.46256C4.9375 7.48756 6.11667 7.00006 7.5 7.00006H11.5V9.00006H7.5C6.66667 9.00006 5.95833 9.29173 5.375 9.87506C4.79167 10.4584 4.5 11.1667 4.5 12.0001C4.5 12.8334 4.79167 13.5417 5.375 14.1251C5.95833 14.7084 6.66667 15.0001 7.5 15.0001H11.5V17.0001ZM8.5 13.0001V11.0001H16.5V13.0001H8.5ZM13.5 17.0001V15.0001H17.5C18.3333 15.0001 19.0417 14.7084 19.625 14.1251C20.2083 13.5417 20.5 12.8334 20.5 12.0001C20.5 11.1667 20.2083 10.4584 19.625 9.87506C19.0417 9.29173 18.3333 9.00006 17.5 9.00006H13.5V7.00006H17.5C18.8833 7.00006 20.0625 7.48756 21.0375 8.46256C22.0125 9.43756 22.5 10.6167 22.5 12.0001C22.5 13.3834 22.0125 14.5626 21.0375 15.5376C20.0625 16.5126 18.8833 17.0001 17.5 17.0001H13.5Z" fill="url(#paint0_linear_426_531)"/>
</g>
</g>
<defs>
<linearGradient id="paint0_linear_426_531" x1="12.5" y1="6.9767" x2="12.5" y2="17.0001" gradientUnits="userSpaceOnUse">
<stop stop-color="white"/>
<stop offset="1" stop-color="#EEEEEE"/>
</linearGradient>
</defs>
</svg>
