<svg width="35" height="35" viewBox="0 0 35 35" fill="none" xmlns="http://www.w3.org/2000/svg">
<g id="local_atm">
<mask id="mask0_777_2179" style="mask-type:alpha" maskUnits="userSpaceOnUse" x="0" y="0" width="35" height="35">
<rect id="Bounding box" width="35" height="35" fill="#D9D9D9"/>
</mask>
<g mask="url(#mask0_777_2179)">
<path id="local_atm_2" d="M16.042 24.7916H18.9587V23.3333H20.417C20.8302 23.3333 21.1765 23.1936 21.4561 22.914C21.7356 22.6345 21.8753 22.2882 21.8753 21.875V17.5C21.8753 17.0868 21.7356 16.7404 21.4561 16.4609C21.1765 16.1814 20.8302 16.0416 20.417 16.0416H16.042V14.5833H21.8753V11.6666H18.9587V10.2083H16.042V11.6666H14.5837C14.1705 11.6666 13.8241 11.8064 13.5446 12.0859C13.2651 12.3654 13.1253 12.7118 13.1253 13.125V17.5C13.1253 17.9132 13.2651 18.2595 13.5446 18.539C13.8241 18.8186 14.1705 18.9583 14.5837 18.9583H18.9587V20.4166H13.1253V23.3333H16.042V24.7916ZM5.83366 29.1666C5.03158 29.1666 4.34494 28.8811 3.77376 28.3099C3.20258 27.7387 2.91699 27.0521 2.91699 26.25V8.74998C2.91699 7.9479 3.20258 7.26126 3.77376 6.69008C4.34494 6.1189 5.03158 5.83331 5.83366 5.83331H29.167C29.9691 5.83331 30.6557 6.1189 31.2269 6.69008C31.7981 7.26126 32.0837 7.9479 32.0837 8.74998V26.25C32.0837 27.0521 31.7981 27.7387 31.2269 28.3099C30.6557 28.8811 29.9691 29.1666 29.167 29.1666H5.83366ZM5.83366 26.25H29.167V8.74998H5.83366V26.25Z" fill="url(#paint0_linear_777_2179)"/>
</g>
</g>
<defs>
<linearGradient id="paint0_linear_777_2179" x1="17.5003" y1="5.83331" x2="17.5003" y2="29.1666" gradientUnits="userSpaceOnUse">
<stop stop-color="#00679F"/>
<stop offset="1" stop-color="#041A50"/>
</linearGradient>
</defs>
</svg>
