<svg width="45" height="46" viewBox="0 0 45 46" fill="none" xmlns="http://www.w3.org/2000/svg">
<g id="mantle-mnt-logo 1">
<g clip-path="url(#clip0_777_2210)">
<path id="Vector" d="M45 0.375H0V45.375H45V0.375Z" fill="black"/>
<path id="Vector_2" d="M22.2846 42.2061V35.5936C21.6254 35.5936 20.9518 35.5357 20.2926 35.4344L19.2607 41.9601C20.2639 42.1338 21.2814 42.2061 22.2846 42.2061ZM25.2942 41.9746C26.2973 41.8155 27.2862 41.5839 28.2464 41.2656L26.2257 34.9714C25.5951 35.174 24.9359 35.3331 24.2766 35.4344L25.2942 41.9746ZM16.3228 41.2656L18.3435 34.9859C17.713 34.7833 17.0967 34.5229 16.4948 34.219L13.5139 40.1081C14.4168 40.5566 15.3626 40.9473 16.3228 41.2656ZM31.041 40.1081C31.9438 39.645 32.8037 39.1097 33.6206 38.5164L29.7512 33.1772C29.2209 33.5679 28.6477 33.9296 28.0458 34.219L31.041 40.1081ZM10.9343 38.5019L14.8037 33.1627C14.2735 32.772 13.7575 32.338 13.2846 31.8605L8.6413 36.5341C9.35786 37.2431 10.1317 37.9087 10.9343 38.5019ZM35.8993 36.563L35.9422 36.5196C36.6588 35.8106 37.318 35.0293 37.9056 34.219L32.6031 30.3267C32.2161 30.8621 31.7719 31.383 31.3133 31.846L31.2416 31.9184L33.4773 34.0454L35.8993 36.563ZM6.67792 34.2045L11.9805 30.3122C11.5935 29.7769 11.2352 29.1981 10.9343 28.6048L5.08716 31.6C5.54576 32.5116 6.07601 33.3798 6.67792 34.2045ZM39.4821 31.6145C39.9407 30.7174 40.3276 29.7624 40.6429 28.7929L34.3945 26.7672C34.1938 27.4039 33.9359 28.0261 33.6349 28.6193L39.4821 31.6145ZM3.92633 28.7929L10.1747 26.7528C9.9741 26.1161 9.81646 25.465 9.71614 24.7994L3.2241 25.8267C3.38174 26.8251 3.62537 27.8235 3.92633 28.7929ZM41.3451 25.8412C41.5028 24.8428 41.5888 23.8155 41.5888 22.8026H35.0251C35.0251 23.4682 34.9677 24.1483 34.8674 24.8138L41.3451 25.8412ZM9.55849 22.7881C9.55849 22.1225 9.61582 21.4425 9.71614 20.7769L3.2241 19.7495C3.06646 20.7479 2.9948 21.7753 2.98047 22.7881H9.55849ZM34.8674 20.7913L41.3595 19.764C41.2018 18.7656 40.9725 17.7672 40.6572 16.7978L34.4088 18.8235C34.6094 19.4746 34.7671 20.1257 34.8674 20.7913ZM10.1747 18.8235C10.3754 18.1868 10.6333 17.5647 10.9343 16.9714L5.08716 13.9762C4.62856 14.8733 4.24162 15.8283 3.92633 16.7978L10.1747 18.8235ZM33.6493 16.9859L39.5107 13.9907C39.0521 13.0791 38.5219 12.211 37.92 11.3862L32.6031 15.2785C32.99 15.8138 33.3483 16.3926 33.6493 16.9859ZM11.9805 15.264C12.3674 14.7286 12.8117 14.2077 13.2846 13.7302L13.2989 13.7158L8.65563 9.04214L8.6413 9.05661C7.92474 9.78009 7.2655 10.547 6.67792 11.3717L11.9805 15.264ZM31.3133 13.7592L32.7177 12.3267L35.9422 9.08555L35.9279 9.07108C35.2114 8.36208 34.4518 7.69648 33.6493 7.10324L29.7798 12.4425C30.3101 12.8331 30.826 13.2672 31.2846 13.7447L31.3133 13.7592ZM14.818 12.4135C15.3483 12.0229 15.9216 11.6756 16.5235 11.3717L13.5426 5.48266C12.6397 5.94568 11.7798 6.48105 10.963 7.0743L14.818 12.4135ZM28.0887 11.3862L31.084 5.49713C30.1811 5.0341 29.2496 4.64343 28.2894 4.3251L26.2544 10.6048C26.8706 10.8219 27.4868 11.0823 28.0887 11.3862ZM18.3722 10.6048C19.0028 10.4023 19.662 10.2431 20.3212 10.1418L19.3037 3.6161C18.3149 3.77526 17.3117 4.00677 16.3515 4.3251L18.3722 10.6048ZM24.291 10.1418L25.3228 3.6161C24.334 3.45693 23.3165 3.37012 22.3133 3.37012V9.98266C22.9725 9.98266 23.6461 10.0405 24.291 10.1418Z" fill="white"/>
<path id="Vector_3" d="M22.2849 35.8975V29.256C21.7259 29.256 21.1814 29.1836 20.6368 29.039L18.917 35.4489C20.0205 35.7383 21.1527 35.8975 22.2849 35.8975ZM25.6527 35.4489C26.7562 35.1595 27.8024 34.7254 28.7912 34.1467L25.4664 28.4023C24.9935 28.6772 24.4775 28.8943 23.9473 29.039L25.6527 35.4489ZM15.7928 34.1467L19.1177 28.4023C18.6447 28.1274 18.2005 27.7801 17.7992 27.3894L17.7419 27.3316L15.6495 29.5454L13.0699 32.0486L13.1129 32.092C13.9154 32.8878 14.8183 33.5824 15.7928 34.1467ZM31.4712 32.092C32.2737 31.2817 32.9759 30.3846 33.5349 29.4007L27.788 26.0727C27.5158 26.5502 27.1718 26.9843 26.7705 27.3894L31.4712 32.092ZM11.0349 29.3862L16.7817 26.0727C16.5094 25.5952 16.2944 25.0888 16.1511 24.5534L9.74505 26.2608C10.0317 27.346 10.4759 28.4023 11.0349 29.3862ZM34.839 26.2753C35.1256 25.1756 35.2833 24.047 35.2833 22.9184H28.6479C28.6479 23.4682 28.5763 24.0325 28.4329 24.5679L34.839 26.2753ZM15.9505 22.9039C15.9505 22.3541 16.0221 21.7898 16.1654 21.2544L9.74505 19.547C9.45842 20.6467 9.30078 21.7753 9.30078 22.9039H15.9505ZM28.4186 21.2689L34.839 19.5615C34.5524 18.4618 34.1081 17.4055 33.5492 16.4216L27.8024 19.7351C28.0603 20.2271 28.2753 20.7335 28.4186 21.2689ZM16.796 19.7351C17.0683 19.2721 17.3979 18.8235 17.7992 18.4328L17.8135 18.4184L15.4345 16.0454L13.1559 13.6869L13.1129 13.7303C12.3103 14.5261 11.6224 15.4377 11.0492 16.4071L16.796 19.7351ZM26.7705 18.4328L29.1208 16.0743L31.5285 13.7881L31.4712 13.7303C30.6686 12.92 29.7658 12.2399 28.7912 11.6611L25.4664 17.4055C25.9393 17.6804 26.3693 18.0132 26.7705 18.4039V18.4328ZM19.1177 17.4055C19.5906 17.1306 20.1065 16.9136 20.6368 16.7689L18.9457 10.3589C17.8422 10.6483 16.796 11.0824 15.8072 11.6611L19.1177 17.4055ZM23.9329 16.7833L25.6527 10.3734C24.5635 10.084 23.4314 9.9248 22.2992 9.9248V16.5663C22.8438 16.5663 23.4027 16.6386 23.9329 16.7833Z" fill="white"/>
</g>
</g>
<defs>
<clipPath id="clip0_777_2210">
<rect y="0.375" width="45" height="45" rx="22.5" fill="white"/>
</clipPath>
</defs>
</svg>
