<svg width="91" height="90" viewBox="0 0 91 90" fill="none" xmlns="http://www.w3.org/2000/svg">
<g id="Metamask" filter="url(#filter0_d_426_1405)">
<path id="Vector" d="M45.5 84C68.1437 84 86.5 65.6437 86.5 43C86.5 20.3563 68.1437 2 45.5 2C22.8563 2 4.5 20.3563 4.5 43C4.5 65.6437 22.8563 84 45.5 84Z" fill="white"/>
<g id="metamask">
<path id="Vector_2" d="M68.5726 19.2969L48.575 34.1493L52.2731 25.3866L68.5726 19.2969Z" fill="#E2761B" stroke="#E2761B" stroke-width="0.633507" stroke-linecap="round" stroke-linejoin="round"/>
<g id="Group">
<path id="Vector_3" d="M22.4073 19.2969L42.2441 34.29L38.727 25.3866L22.4073 19.2969Z" fill="#E4761B" stroke="#E4761B" stroke-width="0.633507" stroke-linecap="round" stroke-linejoin="round"/>
<path id="Vector_4" d="M61.3775 53.7247L56.0515 61.8845L67.4471 65.0198L70.723 53.9056L61.3775 53.7247Z" fill="#E4761B" stroke="#E4761B" stroke-width="0.633507" stroke-linecap="round" stroke-linejoin="round"/>
<path id="Vector_5" d="M20.297 53.9056L23.5529 65.0198L34.9485 61.8845L29.6225 53.7247L20.297 53.9056Z" fill="#E4761B" stroke="#E4761B" stroke-width="0.633507" stroke-linecap="round" stroke-linejoin="round"/>
<path id="Vector_6" d="M34.3054 39.9375L31.1299 44.741L42.4451 45.2434L42.0431 33.0841L34.3054 39.9375Z" fill="#E4761B" stroke="#E4761B" stroke-width="0.633507" stroke-linecap="round" stroke-linejoin="round"/>
<path id="Vector_7" d="M56.6745 39.9375L48.8362 32.9434L48.575 45.2434L59.87 44.7409L56.6745 39.9375Z" fill="#E4761B" stroke="#E4761B" stroke-width="0.633507" stroke-linecap="round" stroke-linejoin="round"/>
<path id="Vector_8" d="M34.9485 61.8846L41.7417 58.5684L35.8731 53.9861L34.9485 61.8846Z" fill="#E4761B" stroke="#E4761B" stroke-width="0.633507" stroke-linecap="round" stroke-linejoin="round"/>
<path id="Vector_9" d="M49.2383 58.5684L56.0515 61.8846L55.1069 53.9861L49.2383 58.5684Z" fill="#E4761B" stroke="#E4761B" stroke-width="0.633507" stroke-linecap="round" stroke-linejoin="round"/>
</g>
<g id="Group_2">
<path id="Vector_10" d="M56.0515 61.8845L49.2383 58.5684L49.7809 63.01L49.7206 64.8791L56.0515 61.8845Z" fill="#D7C1B3" stroke="#D7C1B3" stroke-width="0.633507" stroke-linecap="round" stroke-linejoin="round"/>
<path id="Vector_11" d="M34.9485 61.8845L41.2794 64.8791L41.2392 63.01L41.7417 58.5684L34.9485 61.8845Z" fill="#D7C1B3" stroke="#D7C1B3" stroke-width="0.633507" stroke-linecap="round" stroke-linejoin="round"/>
</g>
<path id="Vector_12" d="M41.3799 51.0517L35.7122 49.3836L39.7118 47.5547L41.3799 51.0517Z" fill="#233447" stroke="#233447" stroke-width="0.633507" stroke-linecap="round" stroke-linejoin="round"/>
<path id="Vector_13" d="M49.6 51.0517L51.2681 47.5547L55.2877 49.3836L49.6 51.0517Z" fill="#233447" stroke="#233447" stroke-width="0.633507" stroke-linecap="round" stroke-linejoin="round"/>
<g id="Group_3">
<path id="Vector_14" d="M34.9486 61.8847L35.9133 53.7249L29.6226 53.9057L34.9486 61.8847Z" fill="#CD6116" stroke="#CD6116" stroke-width="0.633507" stroke-linecap="round" stroke-linejoin="round"/>
<path id="Vector_15" d="M55.0868 53.7249L56.0515 61.8847L61.3775 53.9057L55.0868 53.7249Z" fill="#CD6116" stroke="#CD6116" stroke-width="0.633507" stroke-linecap="round" stroke-linejoin="round"/>
<path id="Vector_16" d="M59.8701 44.741L48.575 45.2434L49.6201 51.0517L51.2882 47.5547L55.3079 49.3836L59.8701 44.741Z" fill="#CD6116" stroke="#CD6116" stroke-width="0.633507" stroke-linecap="round" stroke-linejoin="round"/>
<path id="Vector_17" d="M35.7123 49.3836L39.7319 47.5547L41.3799 51.0517L42.4451 45.2434L31.1299 44.741L35.7123 49.3836Z" fill="#CD6116" stroke="#CD6116" stroke-width="0.633507" stroke-linecap="round" stroke-linejoin="round"/>
</g>
<g id="Group_4">
<path id="Vector_18" d="M31.1299 44.741L35.8731 53.9861L35.7123 49.3836L31.1299 44.741Z" fill="#E4751F" stroke="#E4751F" stroke-width="0.633507" stroke-linecap="round" stroke-linejoin="round"/>
<path id="Vector_19" d="M55.3078 49.3836L55.1068 53.9861L59.8701 44.741L55.3078 49.3836Z" fill="#E4751F" stroke="#E4751F" stroke-width="0.633507" stroke-linecap="round" stroke-linejoin="round"/>
<path id="Vector_20" d="M42.4451 45.2434L41.3799 51.0517L42.7064 57.9052L43.0079 48.8812L42.4451 45.2434Z" fill="#E4751F" stroke="#E4751F" stroke-width="0.633507" stroke-linecap="round" stroke-linejoin="round"/>
<path id="Vector_21" d="M48.5749 45.2434L48.0323 48.8611L48.2735 57.9052L49.62 51.0517L48.5749 45.2434Z" fill="#E4751F" stroke="#E4751F" stroke-width="0.633507" stroke-linecap="round" stroke-linejoin="round"/>
</g>
<path id="Vector_22" d="M49.6201 51.0518L48.2735 57.9052L49.2382 58.5685L55.1069 53.9861L55.3078 49.3837L49.6201 51.0518Z" fill="#F6851B" stroke="#F6851B" stroke-width="0.633507" stroke-linecap="round" stroke-linejoin="round"/>
<path id="Vector_23" d="M35.7122 49.3837L35.873 53.9861L41.7417 58.5685L42.7064 57.9052L41.3799 51.0518L35.7122 49.3837Z" fill="#F6851B" stroke="#F6851B" stroke-width="0.633507" stroke-linecap="round" stroke-linejoin="round"/>
<path id="Vector_24" d="M49.7206 64.8791L49.7809 63.01L49.2784 62.5679H41.7015L41.2392 63.01L41.2794 64.8791L34.9485 61.8845L37.1593 63.6933L41.6412 66.8085H49.3387L53.8407 63.6933L56.0515 61.8845L49.7206 64.8791Z" fill="#C0AD9E" stroke="#C0AD9E" stroke-width="0.633507" stroke-linecap="round" stroke-linejoin="round"/>
<path id="Vector_25" d="M49.2382 58.5684L48.2735 57.9052H42.7063L41.7416 58.5684L41.2392 63.0101L41.7014 62.5679H49.2784L49.7808 63.0101L49.2382 58.5684Z" fill="#161616" stroke="#161616" stroke-width="0.633507" stroke-linecap="round" stroke-linejoin="round"/>
<g id="Group_5">
<path id="Vector_26" d="M69.4167 35.114L71.125 26.914L68.5725 19.2969L49.2382 33.6469L56.6745 39.9376L67.1858 43.0126L69.5171 40.2993L68.5122 39.5758L70.1201 38.1086L68.874 37.1439L70.4819 35.918L69.4167 35.114Z" fill="#763D16" stroke="#763D16" stroke-width="0.633507" stroke-linecap="round" stroke-linejoin="round"/>
<path id="Vector_27" d="M19.875 26.914L21.5833 35.114L20.498 35.918L22.1059 37.1439L20.8799 38.1086L22.4877 39.5758L21.4828 40.2993L23.7941 43.0126L34.3054 39.9376L41.7417 33.6469L22.4074 19.2969L19.875 26.914Z" fill="#763D16" stroke="#763D16" stroke-width="0.633507" stroke-linecap="round" stroke-linejoin="round"/>
</g>
<path id="Vector_28" d="M67.1858 43.0126L56.6745 39.9376L59.8701 44.7411L55.1069 53.9862L61.3775 53.9058H70.723L67.1858 43.0126Z" fill="#F6851B" stroke="#F6851B" stroke-width="0.633507" stroke-linecap="round" stroke-linejoin="round"/>
<path id="Vector_29" d="M34.3053 39.9376L23.7941 43.0126L20.297 53.9058H29.6225L35.873 53.9862L31.1298 44.7411L34.3053 39.9376Z" fill="#F6851B" stroke="#F6851B" stroke-width="0.633507" stroke-linecap="round" stroke-linejoin="round"/>
<path id="Vector_30" d="M48.575 45.2435L49.2382 33.6469L52.2931 25.3866H38.7269L41.7416 33.6469L42.4451 45.2435L42.6862 48.9013L42.7063 57.9052H48.2735L48.3137 48.9013L48.575 45.2435Z" fill="#F6851B" stroke="#F6851B" stroke-width="0.633507" stroke-linecap="round" stroke-linejoin="round"/>
</g>
</g>
<defs>
<filter id="filter0_d_426_1405" x="0.5" y="0" width="90" height="90" filterUnits="userSpaceOnUse" color-interpolation-filters="sRGB">
<feFlood flood-opacity="0" result="BackgroundImageFix"/>
<feColorMatrix in="SourceAlpha" type="matrix" values="0 0 0 0 0 0 0 0 0 0 0 0 0 0 0 0 0 0 127 0" result="hardAlpha"/>
<feOffset dy="2"/>
<feGaussianBlur stdDeviation="2"/>
<feComposite in2="hardAlpha" operator="out"/>
<feColorMatrix type="matrix" values="0 0 0 0 0 0 0 0 0 0 0 0 0 0 0 0 0 0 0.25 0"/>
<feBlend mode="normal" in2="BackgroundImageFix" result="effect1_dropShadow_426_1405"/>
<feBlend mode="normal" in="SourceGraphic" in2="effect1_dropShadow_426_1405" result="shape"/>
</filter>
</defs>
</svg>
