<svg width="35" height="35" viewBox="0 0 35 35" fill="none" xmlns="http://www.w3.org/2000/svg">
<g id="send_money">
<mask id="mask0_781_2365" style="mask-type:alpha" maskUnits="userSpaceOnUse" x="0" y="0" width="35" height="35">
<rect id="Bounding box" width="35" height="35" fill="#D9D9D9"/>
</mask>
<g mask="url(#mask0_781_2365)">
<path id="send_money_2" d="M8.75 28.8021C6.22222 28.1459 4.13194 26.7848 2.47917 24.7188C0.826389 22.6528 0 20.2466 0 17.5C0 14.7535 0.826389 12.3473 2.47917 10.2813C4.13194 8.21532 6.22222 6.85421 8.75 6.19796V9.26046C7.02431 9.84379 5.62066 10.8889 4.53906 12.3959C3.45747 13.9028 2.91667 15.6042 2.91667 17.5C2.91667 19.3959 3.45747 21.0973 4.53906 22.6042C5.62066 24.1112 7.02431 25.1563 8.75 25.7396V28.8021ZM20.4167 29.1667C17.184 29.1667 14.4314 28.0304 12.1589 25.7579C9.88629 23.4853 8.75 20.7327 8.75 17.5C8.75 14.2674 9.88629 11.5148 12.1589 9.24223C14.4314 6.96966 17.184 5.83337 20.4167 5.83337C22.0208 5.83337 23.5278 6.13719 24.9375 6.74483C26.3472 7.35247 27.5868 8.19101 28.6562 9.26046L26.6146 11.3021C25.8125 10.5 24.8828 9.87417 23.8255 9.42452C22.7682 8.97487 21.6319 8.75004 20.4167 8.75004C17.9861 8.75004 15.9201 9.60074 14.2188 11.3021C12.5174 13.0035 11.6667 15.0695 11.6667 17.5C11.6667 19.9306 12.5174 21.9966 14.2188 23.698C15.9201 25.3993 17.9861 26.25 20.4167 26.25C21.6319 26.25 22.7682 26.0252 23.8255 25.5756C24.8828 25.1259 25.8125 24.5 26.6146 23.698L28.6562 25.7396C27.5868 26.8091 26.3472 27.6476 24.9375 28.2552C23.5278 28.8629 22.0208 29.1667 20.4167 29.1667ZM29.1667 23.3334L27.125 21.2917L29.4583 18.9584H18.9583V16.0417H29.4583L27.125 13.7084L29.1667 11.6667L35 17.5L29.1667 23.3334Z" fill="url(#paint0_linear_781_2365)"/>
</g>
</g>
<defs>
<linearGradient id="paint0_linear_781_2365" x1="17.5" y1="5.83337" x2="17.5" y2="29.1667" gradientUnits="userSpaceOnUse">
<stop stop-color="#00679F"/>
<stop offset="1" stop-color="#041A50"/>
</linearGradient>
</defs>
</svg>
