<svg width="33" height="32" viewBox="0 0 33 32" fill="none" xmlns="http://www.w3.org/2000/svg">
<g id="snx" clip-path="url(#clip0_516_1555)">
<g id="Group">
<path id="Vector" d="M16.125 32C24.9616 32 32.125 24.8366 32.125 16C32.125 7.16344 24.9616 0 16.125 0C7.28844 0 0.125 7.16344 0.125 16C0.125 24.8366 7.28844 32 16.125 32Z" fill="#5FCDF9"/>
<path id="Vector_2" d="M11.217 12.264C11.1589 12.1887 11.0841 12.1279 10.9986 12.0862C10.9131 12.0446 10.8191 12.0233 10.724 12.024H6.744C6.712 12.0233 6.68138 12.0109 6.658 11.989C6.63727 11.9687 6.62541 11.941 6.625 11.912V9.11201C6.62541 9.08299 6.63727 9.05532 6.658 9.03501C6.66837 9.02263 6.68167 9.01304 6.69669 9.0071C6.71171 9.00116 6.72797 8.99907 6.744 9.00101H10.95C12.01 9.00101 12.925 9.45501 13.697 10.36L14.72 11.663L12.728 14.197L11.217 12.264ZM18.568 10.347C19.336 9.45101 20.256 9.00101 21.328 9.00101H25.521C25.5351 8.99969 25.5493 9.00132 25.5627 9.0058C25.5762 9.01028 25.5885 9.0175 25.599 9.02701C25.6094 9.0383 25.6171 9.05185 25.6214 9.06659C25.6258 9.08133 25.6266 9.09687 25.624 9.11201V11.912C25.624 11.942 25.616 11.968 25.599 11.989C25.5902 12.0011 25.5783 12.0106 25.5646 12.0166C25.5509 12.0226 25.5359 12.0248 25.521 12.023H21.541C21.4461 12.0225 21.3523 12.0438 21.2669 12.0855C21.1816 12.1271 21.107 12.1878 21.049 12.263L18.115 15.99L21.06 19.742C21.18 19.883 21.356 19.969 21.537 19.965H25.517C25.5316 19.964 25.5463 19.9665 25.5597 19.9725C25.5731 19.9784 25.5849 19.9875 25.594 19.999C25.6124 20.0253 25.6212 20.057 25.619 20.089V22.889C25.6198 22.9168 25.611 22.944 25.594 22.966C25.5852 22.9781 25.5733 22.9876 25.5596 22.9936C25.5459 22.9996 25.5309 23.0018 25.516 23H21.327C20.255 23 19.343 22.546 18.579 21.641L16.139 18.533L13.7 21.641C12.932 22.546 12.012 23.001 10.94 23.001H6.745C6.73012 23.0021 6.71519 22.9995 6.70158 22.9934C6.68796 22.9873 6.67608 22.9778 6.667 22.966C6.65708 22.9534 6.64976 22.939 6.64547 22.9235C6.64117 22.9081 6.64 22.8919 6.642 22.876V20.076C6.642 20.046 6.651 20.02 6.667 19.999C6.6758 19.9869 6.68766 19.9774 6.70138 19.9714C6.71509 19.9654 6.73015 19.9632 6.745 19.965H10.725C10.914 19.965 11.095 19.875 11.218 19.725L14.097 16.055L18.569 10.348L18.568 10.347Z" fill="white"/>
</g>
</g>
<defs>
<clipPath id="clip0_516_1555">
<rect width="32" height="32" fill="white" transform="translate(0.125)"/>
</clipPath>
</defs>
</svg>
