<svg width="33" height="32" viewBox="0 0 33 32" fill="none" xmlns="http://www.w3.org/2000/svg">
<g id="sushi" clip-path="url(#clip0_516_1540)">
<g id="Group">
<path id="Vector" d="M16.375 32C25.2116 32 32.375 24.8366 32.375 16C32.375 7.16344 25.2116 0 16.375 0C7.53844 0 0.375 7.16344 0.375 16C0.375 24.8366 7.53844 32 16.375 32Z" fill="#D65892"/>
<path id="Vector_2" fill-rule="evenodd" clip-rule="evenodd" d="M14.1692 7.02C16.0312 7.177 18.4962 8.2 20.8712 9.932C23.2372 11.674 24.9732 13.747 25.7112 15.498C26.2512 16.769 26.2692 17.894 25.7292 18.668L22.0232 23.975C21.4832 24.749 20.4302 25.09 19.0902 24.98C17.2282 24.814 14.7542 23.8 12.3882 22.059C10.0132 20.326 8.28623 18.253 7.53823 16.502C6.99923 15.231 6.98123 14.106 7.52123 13.332L11.2362 8.025C11.7762 7.251 12.8202 6.91 14.1692 7.02ZM21.9572 19.468C21.9224 19.4624 21.8868 19.4707 21.8581 19.4912C21.8295 19.5116 21.81 19.5426 21.8039 19.5773C21.7979 19.612 21.8057 19.6477 21.8258 19.6767C21.8459 19.7056 21.8766 19.7255 21.9112 19.732C22.6432 19.862 23.2982 19.885 23.8452 19.796C23.8785 19.7884 23.9076 19.7685 23.9266 19.7402C23.9457 19.7119 23.9532 19.6775 23.9477 19.6438C23.9423 19.6102 23.9242 19.5799 23.8971 19.5591C23.8701 19.5383 23.8362 19.5286 23.8022 19.532C23.2882 19.616 22.6622 19.593 21.9572 19.468ZM20.7662 19.321C20.7613 19.3379 20.7599 19.3557 20.7618 19.3732C20.7638 19.3907 20.7692 19.4077 20.7778 19.4231C20.7863 19.4385 20.7978 19.4521 20.8116 19.4631C20.8254 19.474 20.8413 19.4822 20.8582 19.487C21.0342 19.537 21.2082 19.582 21.3792 19.622C21.4123 19.6264 21.4459 19.6184 21.4733 19.5994C21.5008 19.5804 21.5201 19.5518 21.5276 19.5193C21.5351 19.4868 21.5302 19.4526 21.5139 19.4236C21.4975 19.3945 21.4709 19.3725 21.4392 19.362C21.2732 19.322 21.1032 19.278 20.9302 19.229C20.8963 19.2195 20.8599 19.2238 20.8292 19.241C20.7984 19.2583 20.7758 19.2871 20.7662 19.321ZM11.7492 8.403L11.7312 8.439C11.3262 9.057 11.4162 9.932 11.8392 10.927C12.5492 12.604 14.2142 14.567 16.4722 16.226C18.7302 17.884 21.0782 18.87 22.8502 19.018C23.9122 19.101 24.7482 18.908 25.1902 18.327L25.2162 18.281C25.6482 17.672 25.5582 16.769 25.1362 15.756C24.4252 14.088 22.7602 12.126 20.4932 10.466C18.2352 8.808 15.8872 7.822 14.1152 7.675C13.0352 7.582 12.1812 7.785 11.7492 8.403ZM11.0052 10.851C10.9714 10.8612 10.9429 10.8844 10.926 10.9155C10.9092 10.9466 10.9053 10.9831 10.9152 11.017C11.3712 12.581 12.5292 14.07 14.3502 15.747L14.5552 15.935C14.6962 16.0628 14.8382 16.1895 14.9812 16.315C15.0372 16.363 15.1212 16.357 15.1692 16.301C15.1926 16.2742 15.2043 16.2393 15.2019 16.2038C15.1994 16.1684 15.183 16.1353 15.1562 16.112C15.0462 16.017 14.9402 15.922 14.8342 15.827L14.6272 15.639C12.7842 13.956 11.6172 12.473 11.1702 10.942C11.1654 10.9252 11.1573 10.9095 11.1464 10.8958C11.1355 10.8821 11.122 10.8707 11.1066 10.8622C11.0913 10.8538 11.0744 10.8484 11.057 10.8465C11.0396 10.8446 11.022 10.8461 11.0052 10.851ZM16.2562 10.568C17.1382 10.651 18.3162 11.139 19.4412 11.968C20.5742 12.798 21.4112 13.784 21.7612 14.622C21.9692 15.092 22.0232 15.507 21.8162 15.792C21.6182 16.078 21.2132 16.162 20.7182 16.115C19.8282 16.041 18.6582 15.544 17.5252 14.715C16.3912 13.885 15.5552 12.908 15.2042 12.07C15.0062 11.6 14.9522 11.185 15.1502 10.9C15.3482 10.614 15.7522 10.531 16.2562 10.568ZM10.8592 9.79C10.8239 9.79156 10.7905 9.80706 10.7666 9.8331C10.7426 9.85915 10.7299 9.89362 10.7312 9.929C10.7392 10.111 10.7582 10.294 10.7902 10.479C10.7933 10.4962 10.7996 10.5126 10.809 10.5274C10.8184 10.5421 10.8306 10.5549 10.8449 10.5649C10.8592 10.5749 10.8753 10.582 10.8923 10.5858C10.9094 10.5896 10.927 10.59 10.9442 10.587C10.9614 10.584 10.9779 10.5776 10.9926 10.5682C11.0074 10.5589 11.0201 10.5467 11.0301 10.5324C11.0402 10.5181 11.0473 10.5019 11.0511 10.4849C11.0549 10.4678 11.0553 10.4502 11.0522 10.433C11.0228 10.2627 11.0045 10.0907 10.9972 9.918C10.9966 9.90053 10.9925 9.88336 10.9852 9.86747C10.9779 9.85158 10.9676 9.83728 10.9548 9.82539C10.942 9.8135 10.9269 9.80426 10.9105 9.79819C10.8941 9.79211 10.8767 9.78933 10.8592 9.79Z" fill="white"/>
</g>
</g>
<defs>
<clipPath id="clip0_516_1540">
<rect width="32" height="32" fill="white" transform="translate(0.375)"/>
</clipPath>
</defs>
</svg>
