<svg width="33" height="32" viewBox="0 0 33 32" fill="none" xmlns="http://www.w3.org/2000/svg">
<g id="uni" clip-path="url(#clip0_516_1423)">
<g id="Group">
<path id="Vector" d="M16.875 32C25.7116 32 32.875 24.8366 32.875 16C32.875 7.16344 25.7116 0 16.875 0C8.03844 0 0.875 7.16344 0.875 16C0.875 24.8366 8.03844 32 16.875 32Z" fill="#FF007A"/>
<g id="Group_2">
<path id="Vector_2" d="M13.1358 5.76699C12.8508 5.72299 12.8388 5.71699 12.9728 5.69699C13.2298 5.65699 13.8378 5.71199 14.2568 5.81099C15.2338 6.04399 16.1228 6.63899 17.0728 7.69599L17.3248 7.97599L17.6848 7.91899C19.2048 7.67399 20.7518 7.86899 22.0448 8.46599C22.4008 8.62999 22.9618 8.95699 23.0318 9.04199C23.0548 9.06799 23.0958 9.24099 23.1228 9.42499C23.2188 10.062 23.1708 10.55 22.9768 10.915C22.8708 11.113 22.8648 11.175 22.9358 11.345C22.9695 11.4152 23.0222 11.4746 23.088 11.5163C23.1537 11.558 23.2299 11.5804 23.3078 11.581C23.6298 11.581 23.9758 11.061 24.1358 10.338L24.1998 10.051L24.3258 10.194C25.0178 10.978 25.5608 12.047 25.6538 12.807L25.6788 13.006L25.5618 12.826C25.3618 12.516 25.1618 12.304 24.9038 12.133C24.4398 11.826 23.9488 11.722 22.6488 11.653C21.4748 11.591 20.8098 11.491 20.1518 11.276C19.0308 10.911 18.4658 10.424 17.1338 8.67699C16.5428 7.90099 16.1768 7.47199 15.8138 7.12699C14.9868 6.34099 14.1748 5.92899 13.1358 5.76699Z" fill="white"/>
<path id="Vector_3" d="M23.2967 7.49999C23.3267 6.97999 23.3967 6.63699 23.5387 6.32399C23.5947 6.19999 23.6477 6.09799 23.6557 6.09799C23.6468 6.16819 23.6283 6.23683 23.6007 6.30199C23.4977 6.60599 23.4807 7.02199 23.5517 7.50499C23.6417 8.11899 23.6937 8.20699 24.3417 8.86999C24.6467 9.18099 25.0007 9.57299 25.1287 9.74199L25.3617 10.048L25.1287 9.82899C24.8437 9.56199 24.1877 9.03899 24.0427 8.96499C23.9457 8.91499 23.9307 8.91599 23.8707 8.97499C23.8157 9.03099 23.8037 9.11299 23.7967 9.50399C23.7847 10.112 23.7017 10.504 23.5007 10.894C23.3927 11.104 23.3757 11.06 23.4737 10.821C23.5467 10.643 23.5537 10.565 23.5537 9.97599C23.5537 8.79199 23.4127 8.50799 22.5877 8.01999C22.3395 7.87595 22.0845 7.7438 21.8237 7.62399C21.6949 7.57231 21.5699 7.51148 21.4497 7.44199C21.4727 7.41899 22.2767 7.65299 22.5997 7.77799C23.0817 7.96299 23.1607 7.98699 23.2197 7.96399C23.2587 7.94899 23.2777 7.83499 23.2967 7.49999ZM13.6897 9.52499C13.1107 8.72799 12.7527 7.50499 12.8297 6.59099L12.8537 6.30799L12.9857 6.33199C13.2337 6.37699 13.6607 6.53599 13.8607 6.65799C14.4087 6.99099 14.6467 7.42999 14.8877 8.55599C14.9587 8.88599 15.0517 9.25899 15.0947 9.38599C15.1627 9.58899 15.4227 10.064 15.6347 10.373C15.7867 10.595 15.6847 10.7 15.3487 10.67C14.8347 10.623 14.1387 10.143 13.6897 9.52499ZM22.5947 15.46C19.8877 14.37 18.9347 13.424 18.9347 11.828C18.9347 11.593 18.9427 11.401 18.9517 11.401C18.9617 11.401 19.0667 11.478 19.1847 11.573C19.7337 12.013 20.3487 12.201 22.0497 12.449C23.0507 12.596 23.6147 12.714 24.1347 12.886C25.7867 13.434 26.8087 14.546 27.0527 16.06C27.1227 16.5 27.0817 17.325 26.9667 17.76C26.8767 18.104 26.5997 18.723 26.5267 18.747C26.5067 18.753 26.4867 18.676 26.4807 18.569C26.4527 18.001 26.1657 17.447 25.6827 17.032C25.1337 16.561 24.3977 16.185 22.5947 15.46ZM20.6947 15.912C20.6627 15.7188 20.619 15.5278 20.5637 15.34L20.4937 15.134L20.6227 15.278C20.7997 15.478 20.9407 15.732 21.0587 16.072C21.1497 16.331 21.1597 16.408 21.1587 16.829C21.1587 17.243 21.1477 17.329 21.0637 17.563C20.9469 17.9061 20.7514 18.2171 20.4927 18.471C19.9977 18.975 19.3627 19.253 18.4447 19.369C18.2847 19.389 17.8207 19.423 17.4117 19.444C16.3817 19.498 15.7047 19.608 15.0957 19.822C15.0408 19.8466 14.9818 19.8608 14.9217 19.864C14.8977 19.839 15.3117 19.592 15.6547 19.427C16.1377 19.194 16.6177 19.067 17.6947 18.888C18.2267 18.799 18.7767 18.692 18.9157 18.649C20.2337 18.245 20.9117 17.203 20.6947 15.912Z" fill="white"/>
<path id="Vector_4" d="M21.9347 18.116C21.5747 17.343 21.4928 16.596 21.6898 15.9C21.7108 15.826 21.7447 15.765 21.7647 15.765C21.8324 15.7895 21.8961 15.8239 21.9538 15.867C22.1198 15.979 22.4517 16.167 23.3368 16.649C24.4417 17.252 25.0717 17.719 25.5007 18.251C25.8757 18.718 26.1077 19.25 26.2197 19.898C26.2827 20.265 26.2458 21.148 26.1518 21.518C25.8548 22.684 25.1638 23.6 24.1798 24.134C24.0869 24.1877 23.9907 24.2355 23.8918 24.277C23.8778 24.277 23.9298 24.144 24.0088 23.98C24.3388 23.288 24.3778 22.614 24.1268 21.864C23.9738 21.405 23.6608 20.844 23.0298 19.898C22.2958 18.798 22.1157 18.504 21.9347 18.116ZM11.7677 22.287C12.7727 21.439 14.0218 20.837 15.1608 20.652C15.6508 20.572 16.4688 20.604 16.9228 20.72C17.6508 20.906 18.3028 21.324 18.6418 21.821C18.9718 22.307 19.1147 22.731 19.2617 23.673C19.3217 24.045 19.3847 24.418 19.4037 24.503C19.5137 24.991 19.7308 25.382 19.9988 25.578C20.4238 25.889 21.1568 25.908 21.8768 25.628C21.952 25.5935 22.0313 25.5686 22.1128 25.554C22.1388 25.58 21.7767 25.823 21.5208 25.951C21.2187 26.1127 20.8803 26.1946 20.5378 26.189C19.8778 26.189 19.3297 25.854 18.8727 25.169C18.7827 25.034 18.5808 24.631 18.4228 24.272C17.9408 23.172 17.7027 22.836 17.1427 22.469C16.6537 22.149 16.0248 22.092 15.5518 22.324C14.9298 22.629 14.7567 23.424 15.2017 23.927C15.3787 24.127 15.7088 24.3 15.9788 24.333C16.0965 24.3486 16.2163 24.3388 16.3299 24.3041C16.4436 24.2694 16.5485 24.2108 16.6375 24.1321C16.7265 24.0534 16.7976 23.9565 16.8459 23.848C16.8943 23.7395 16.9188 23.6218 16.9177 23.503C16.9177 23.171 16.7898 22.983 16.4698 22.838C16.0328 22.641 15.5627 22.871 15.5647 23.282C15.5657 23.457 15.6417 23.567 15.8177 23.647C15.9307 23.697 15.9327 23.702 15.8407 23.683C15.4397 23.599 15.3457 23.116 15.6687 22.795C16.0557 22.409 16.8568 22.579 17.1318 23.105C17.2478 23.326 17.2607 23.767 17.1597 24.033C16.9348 24.628 16.2767 24.94 15.6097 24.77C15.1557 24.654 14.9707 24.529 14.4237 23.965C13.4727 22.985 13.1038 22.795 11.7318 22.581L11.4688 22.54L11.7688 22.287H11.7677Z" fill="white"/>
<path id="Vector_5" fill-rule="evenodd" clip-rule="evenodd" d="M7.0708 3.35L7.1668 3.467C10.8748 8.007 12.7908 10.363 12.9128 10.531C13.1128 10.809 13.0378 11.058 12.6938 11.254C12.5028 11.363 12.1088 11.473 11.9128 11.473C11.6898 11.473 11.4388 11.366 11.2558 11.193C11.1268 11.07 10.6058 10.292 9.4028 8.425C8.83945 7.5426 8.26877 6.6649 7.6908 5.792C7.6418 5.746 7.6428 5.747 9.3088 8.728C10.3548 10.6 10.7088 11.261 10.7088 11.35C10.7088 11.53 10.6588 11.624 10.4368 11.872C10.0668 12.285 9.9018 12.749 9.7818 13.709C9.6478 14.786 9.2718 15.546 8.2278 16.847C7.6178 17.609 7.5178 17.749 7.3628 18.056C7.1688 18.442 7.1158 18.659 7.0938 19.147C7.0708 19.663 7.1158 19.997 7.2738 20.49C7.4118 20.922 7.5558 21.208 7.9238 21.778C8.2418 22.271 8.4248 22.637 8.4248 22.78C8.4248 22.894 8.4468 22.894 8.9398 22.783C10.1188 22.517 11.0758 22.048 11.6148 21.474C11.9478 21.119 12.0258 20.923 12.0288 20.436C12.0298 20.118 12.0188 20.051 11.9328 19.868C11.7928 19.57 11.5378 19.322 10.9758 18.938C10.2388 18.434 9.9248 18.028 9.8378 17.471C9.7658 17.014 9.8488 16.691 10.2568 15.837C10.6778 14.953 10.7828 14.577 10.8538 13.686C10.8988 13.11 10.9618 12.883 11.1278 12.701C11.2998 12.511 11.4558 12.446 11.8828 12.388C12.5788 12.293 13.0218 12.113 13.3858 11.778C13.7018 11.486 13.8338 11.205 13.8538 10.783L13.8698 10.463L13.6928 10.257C13.4388 9.961 11.3378 7.643 7.3888 3.301L7.2828 3.186L7.0708 3.351V3.35ZM8.7848 19.732C8.85457 19.6085 8.8754 19.4633 8.84318 19.3251C8.81095 19.1869 8.72802 19.0659 8.6108 18.986C8.3828 18.834 8.0278 18.906 8.0278 19.104C8.0278 19.164 8.0608 19.208 8.1358 19.247C8.2628 19.312 8.2718 19.386 8.1728 19.535C8.0718 19.687 8.0798 19.821 8.1958 19.912C8.3818 20.058 8.6448 19.977 8.7848 19.732ZM14.3088 12.556C13.9818 12.656 13.6648 13.003 13.5658 13.366C13.5058 13.587 13.5398 13.976 13.6298 14.096C13.7748 14.29 13.9158 14.341 14.2958 14.338C15.0398 14.333 15.6858 14.014 15.7618 13.615C15.8238 13.288 15.5388 12.835 15.1478 12.635C14.9458 12.533 14.5168 12.492 14.3088 12.556ZM15.1788 13.236C15.2938 13.073 15.2428 12.896 15.0488 12.778C14.6768 12.551 14.1148 12.738 14.1148 13.09C14.1148 13.264 14.4078 13.455 14.6758 13.455C14.8558 13.455 15.0998 13.348 15.1788 13.236Z" fill="white"/>
</g>
</g>
</g>
<defs>
<clipPath id="clip0_516_1423">
<rect width="32" height="32" fill="white" transform="translate(0.875)"/>
</clipPath>
</defs>
</svg>
