<svg width="297" height="123" viewBox="0 0 297 123" fill="none" xmlns="http://www.w3.org/2000/svg">
<g filter="url(#filter0_d_426_520)">
<g clip-path="url(#clip0_426_520)">
<path d="M253.188 91C268.284 91 280.522 78.7625 280.522 63.6667C280.522 48.5709 268.284 36.3334 253.188 36.3334C238.093 36.3334 225.855 48.5709 225.855 63.6667C225.855 78.7625 238.093 91 253.188 91Z" fill="white"/>
<path d="M253.204 47.8112C258.72 52.4177 265.045 52.1336 266.853 52.1336C266.457 78.332 263.445 73.137 253.204 80.4831C242.964 73.137 239.971 78.332 239.575 52.1336C241.364 52.1336 247.689 52.4177 253.204 47.8112Z" stroke="#3375BB" stroke-width="6.37778" stroke-miterlimit="10" stroke-linecap="round" stroke-linejoin="round"/>
</g>
</g>
<g filter="url(#filter1_d_426_520)">
<g clip-path="url(#clip1_426_520)">
<path d="M41.8115 90.9999C56.9073 90.9999 69.1449 78.7623 69.1449 63.6665C69.1449 48.5707 56.9073 36.3332 41.8115 36.3332C26.7158 36.3332 14.4782 48.5707 14.4782 63.6665C14.4782 78.7623 26.7158 90.9999 41.8115 90.9999Z" fill="black"/>
<path fill-rule="evenodd" clip-rule="evenodd" d="M25.5842 70.1253C25.5838 70.1582 25.5836 70.191 25.5836 70.224C25.5836 74.2559 28.8521 77.5243 32.884 77.5243C36.9159 77.5243 40.1843 74.2559 40.1843 70.224C40.1843 70.191 40.1841 70.1582 40.1838 70.1253H36.7301C36.731 70.1581 36.7314 70.1909 36.7314 70.224C36.7314 72.3489 35.0088 74.0715 32.8839 74.0715C30.759 74.0715 29.0364 72.3489 29.0364 70.224C29.0364 70.1909 29.0368 70.1581 29.0376 70.1253H25.5842ZM32.884 49.9999C37.6242 49.9999 41.4669 53.8426 41.4669 58.5828C41.4669 63.323 37.6242 67.1657 32.884 67.1657C28.1438 67.1657 24.3011 63.323 24.3011 58.5828C24.3011 53.8426 28.1438 49.9999 32.884 49.9999ZM32.884 53.4528C35.7172 53.4528 38.0141 55.7495 38.0141 58.5827C38.0141 61.416 35.7172 63.7128 32.884 63.7128C30.0508 63.7128 27.754 61.416 27.754 58.5827C27.754 55.7495 30.0508 53.4528 32.884 53.4528ZM33.4758 56.908C34.1656 57.1518 34.6598 57.8096 34.6598 58.5828C34.6598 59.5636 33.8647 60.3585 32.884 60.3585C31.9033 60.3585 31.1082 59.5636 31.1082 58.5828C31.1082 57.8096 31.6024 57.1519 32.2921 56.9081V55.7218H33.4758V56.908ZM44.4315 60.8016C43.8622 59.7622 43.5386 58.569 43.5386 57.3003C43.5386 53.2684 46.8071 49.9999 50.839 49.9999C54.8709 49.9999 58.1394 53.2684 58.1394 57.3003C58.1394 58.5691 57.8157 59.7622 57.2464 60.8017C56.3452 60.0913 55.323 59.5273 54.2159 59.1457C54.5159 58.5978 54.6865 57.969 54.6865 57.3003C54.6865 55.1753 52.9639 53.4528 50.839 53.4528C48.7141 53.4528 46.9915 55.1753 46.9915 57.3003C46.9915 57.969 47.1621 58.5978 47.4621 59.1456C46.355 59.5272 45.3328 60.0912 44.4315 60.8016ZM50.839 77.5243C55.5792 77.5243 59.4219 73.6816 59.4219 68.9414C59.4219 64.2012 55.5792 60.3585 50.839 60.3585C46.0988 60.3585 42.2561 64.2012 42.2561 68.9414C42.2561 73.6816 46.0988 77.5243 50.839 77.5243ZM50.839 74.0715C53.6722 74.0715 55.969 71.7747 55.969 68.9414C55.969 66.1082 53.6722 63.8115 50.839 63.8115C48.0058 63.8115 45.709 66.1082 45.709 68.9414C45.709 71.7747 48.0058 74.0715 50.839 74.0715ZM51.4309 70.6163C52.1206 70.3725 52.6148 69.7147 52.6148 68.9414C52.6148 67.9607 51.8197 67.1657 50.839 67.1657C49.8583 67.1657 49.0633 67.9607 49.0633 68.9414C49.0633 69.7146 49.5574 70.3724 50.2471 70.6162V71.8024H51.4309V70.6163Z" fill="#DEAE30"/>
</g>
</g>
<g filter="url(#filter2_d_426_520)">
<g clip-path="url(#clip2_426_520)">
<path d="M84.1782 90.9999C103.048 90.9999 118.345 75.703 118.345 56.8332C118.345 37.9635 103.048 22.6666 84.1782 22.6666C65.3085 22.6666 50.0115 37.9635 50.0115 56.8332C50.0115 75.703 65.3085 90.9999 84.1782 90.9999Z" fill="url(#paint0_linear_426_520)"/>
<path d="M109.047 57.3213H102.939C102.939 44.963 92.8122 34.9452 80.3197 34.9452C67.9817 34.9452 57.9508 44.7178 57.7053 56.8643C57.4513 69.4199 69.359 80.3228 82.0527 80.3228H83.6494C94.8405 80.3228 109.84 71.6566 112.184 61.0973C112.617 59.1508 111.062 57.3213 109.047 57.3213ZM71.2423 57.8718C71.2423 59.5244 69.876 60.876 68.2054 60.876C66.5348 60.876 65.1685 59.5238 65.1685 57.8718V53.0116C65.1685 51.3589 66.5348 50.0073 68.2054 50.0073C69.876 50.0073 71.2423 51.3589 71.2423 53.0116V57.8718ZM81.7878 57.8718C81.7878 59.5244 80.4215 60.876 78.7509 60.876C77.0804 60.876 75.714 59.5238 75.714 57.8718V53.0116C75.714 51.3589 77.0809 50.0073 78.7509 50.0073C80.4215 50.0073 81.7878 51.3589 81.7878 53.0116V57.8718Z" fill="url(#paint1_linear_426_520)"/>
</g>
</g>
<g filter="url(#filter3_d_426_520)">
<g clip-path="url(#clip3_426_520)">
<path d="M205.356 90.9999C224.226 90.9999 239.523 75.703 239.523 56.8332C239.523 37.9635 224.226 22.6666 205.356 22.6666C186.486 22.6666 171.189 37.9635 171.189 56.8332C171.189 75.703 186.486 90.9999 205.356 90.9999Z" fill="#0052FF"/>
<path fill-rule="evenodd" clip-rule="evenodd" d="M181.333 56.8333C181.333 70.1011 192.088 80.8567 205.356 80.8567C218.624 80.8567 229.379 70.1011 229.379 56.8333C229.379 43.5654 218.624 32.8098 205.356 32.8098C192.088 32.8098 181.333 43.5654 181.333 56.8333ZM199.217 49.0924C198.332 49.0924 197.615 49.8094 197.615 50.6939V62.9726C197.615 63.8571 198.332 64.5741 199.217 64.5741H211.495C212.38 64.5741 213.097 63.8571 213.097 62.9726V50.6939C213.097 49.8094 212.38 49.0924 211.495 49.0924H199.217Z" fill="white"/>
</g>
</g>
<g filter="url(#filter4_d_426_520)">
<g clip-path="url(#clip4_426_520)">
<path d="M147.5 90.9999C170.143 90.9999 188.5 72.6436 188.5 49.9999C188.5 27.3562 170.143 8.99988 147.5 8.99988C124.856 8.99988 106.5 27.3562 106.5 49.9999C106.5 72.6436 124.856 90.9999 147.5 90.9999Z" fill="white"/>
<path d="M170.572 26.2968L150.575 41.1492L154.273 32.3865L170.572 26.2968Z" fill="#E2761B" stroke="#E2761B" stroke-width="0.633507" stroke-linecap="round" stroke-linejoin="round"/>
<path d="M124.407 26.2968L144.244 41.2899L140.727 32.3865L124.407 26.2968Z" fill="#E4761B" stroke="#E4761B" stroke-width="0.633507" stroke-linecap="round" stroke-linejoin="round"/>
<path d="M163.377 60.7247L158.051 68.8845L169.447 72.0198L172.723 60.9056L163.377 60.7247Z" fill="#E4761B" stroke="#E4761B" stroke-width="0.633507" stroke-linecap="round" stroke-linejoin="round"/>
<path d="M122.297 60.9056L125.553 72.0198L136.948 68.8845L131.622 60.7247L122.297 60.9056Z" fill="#E4761B" stroke="#E4761B" stroke-width="0.633507" stroke-linecap="round" stroke-linejoin="round"/>
<path d="M136.305 46.9374L133.13 51.7409L144.445 52.2433L144.043 40.084L136.305 46.9374Z" fill="#E4761B" stroke="#E4761B" stroke-width="0.633507" stroke-linecap="round" stroke-linejoin="round"/>
<path d="M158.674 46.9374L150.836 39.9433L150.575 52.2433L161.87 51.7408L158.674 46.9374Z" fill="#E4761B" stroke="#E4761B" stroke-width="0.633507" stroke-linecap="round" stroke-linejoin="round"/>
<path d="M136.948 68.8845L143.741 65.5683L137.873 60.986L136.948 68.8845Z" fill="#E4761B" stroke="#E4761B" stroke-width="0.633507" stroke-linecap="round" stroke-linejoin="round"/>
<path d="M151.238 65.5683L158.051 68.8845L157.107 60.986L151.238 65.5683Z" fill="#E4761B" stroke="#E4761B" stroke-width="0.633507" stroke-linecap="round" stroke-linejoin="round"/>
<path d="M158.051 68.8845L151.238 65.5684L151.781 70.01L151.72 71.8791L158.051 68.8845Z" fill="#D7C1B3" stroke="#D7C1B3" stroke-width="0.633507" stroke-linecap="round" stroke-linejoin="round"/>
<path d="M136.948 68.8845L143.279 71.8791L143.239 70.01L143.741 65.5684L136.948 68.8845Z" fill="#D7C1B3" stroke="#D7C1B3" stroke-width="0.633507" stroke-linecap="round" stroke-linejoin="round"/>
<path d="M143.38 58.0516L137.712 56.3835L141.711 54.5546L143.38 58.0516Z" fill="#233447" stroke="#233447" stroke-width="0.633507" stroke-linecap="round" stroke-linejoin="round"/>
<path d="M151.6 58.0516L153.268 54.5546L157.287 56.3835L151.6 58.0516Z" fill="#233447" stroke="#233447" stroke-width="0.633507" stroke-linecap="round" stroke-linejoin="round"/>
<path d="M136.948 68.8845L137.913 60.7247L131.622 60.9056L136.948 68.8845Z" fill="#CD6116" stroke="#CD6116" stroke-width="0.633507" stroke-linecap="round" stroke-linejoin="round"/>
<path d="M157.086 60.7247L158.051 68.8845L163.377 60.9056L157.086 60.7247Z" fill="#CD6116" stroke="#CD6116" stroke-width="0.633507" stroke-linecap="round" stroke-linejoin="round"/>
<path d="M161.87 51.7408L150.575 52.2433L151.62 58.0516L153.288 54.5546L157.308 56.3835L161.87 51.7408Z" fill="#CD6116" stroke="#CD6116" stroke-width="0.633507" stroke-linecap="round" stroke-linejoin="round"/>
<path d="M137.712 56.3835L141.732 54.5546L143.38 58.0516L144.445 52.2433L133.13 51.7408L137.712 56.3835Z" fill="#CD6116" stroke="#CD6116" stroke-width="0.633507" stroke-linecap="round" stroke-linejoin="round"/>
<path d="M133.13 51.7408L137.873 60.9859L137.712 56.3835L133.13 51.7408Z" fill="#E4751F" stroke="#E4751F" stroke-width="0.633507" stroke-linecap="round" stroke-linejoin="round"/>
<path d="M157.308 56.3835L157.107 60.9859L161.87 51.7408L157.308 56.3835Z" fill="#E4751F" stroke="#E4751F" stroke-width="0.633507" stroke-linecap="round" stroke-linejoin="round"/>
<path d="M144.445 52.2433L143.38 58.0517L144.706 64.9051L145.008 55.8811L144.445 52.2433Z" fill="#E4751F" stroke="#E4751F" stroke-width="0.633507" stroke-linecap="round" stroke-linejoin="round"/>
<path d="M150.575 52.2433L150.032 55.861L150.273 64.9051L151.62 58.0517L150.575 52.2433Z" fill="#E4751F" stroke="#E4751F" stroke-width="0.633507" stroke-linecap="round" stroke-linejoin="round"/>
<path d="M151.62 58.0516L150.273 64.9051L151.238 65.5683L157.107 60.9859L157.308 56.3835L151.62 58.0516Z" fill="#F6851B" stroke="#F6851B" stroke-width="0.633507" stroke-linecap="round" stroke-linejoin="round"/>
<path d="M137.712 56.3835L137.873 60.9859L143.741 65.5683L144.706 64.9051L143.38 58.0516L137.712 56.3835Z" fill="#F6851B" stroke="#F6851B" stroke-width="0.633507" stroke-linecap="round" stroke-linejoin="round"/>
<path d="M151.72 71.8791L151.781 70.01L151.278 69.5678H143.701L143.239 70.01L143.279 71.8791L136.948 68.8845L139.159 70.6933L143.641 73.8085H151.338L155.84 70.6933L158.051 68.8845L151.72 71.8791Z" fill="#C0AD9E" stroke="#C0AD9E" stroke-width="0.633507" stroke-linecap="round" stroke-linejoin="round"/>
<path d="M151.238 65.5683L150.273 64.905H144.706L143.741 65.5683L143.239 70.0099L143.701 69.5678H151.278L151.781 70.0099L151.238 65.5683Z" fill="#161616" stroke="#161616" stroke-width="0.633507" stroke-linecap="round" stroke-linejoin="round"/>
<path d="M171.416 42.1139L173.125 33.9139L170.572 26.2968L151.238 40.6468L158.674 46.9374L169.185 50.0124L171.517 47.2992L170.512 46.5757L172.12 45.1085L170.874 44.1438L172.482 42.9178L171.416 42.1139Z" fill="#763D16" stroke="#763D16" stroke-width="0.633507" stroke-linecap="round" stroke-linejoin="round"/>
<path d="M121.875 33.9139L123.583 42.1139L122.498 42.9178L124.106 44.1438L122.88 45.1085L124.487 46.5757L123.483 47.2992L125.794 50.0124L136.305 46.9374L143.741 40.6468L124.407 26.2968L121.875 33.9139Z" fill="#763D16" stroke="#763D16" stroke-width="0.633507" stroke-linecap="round" stroke-linejoin="round"/>
<path d="M169.185 50.0124L158.674 46.9374L161.87 51.7409L157.107 60.986L163.377 60.9056H172.723L169.185 50.0124Z" fill="#F6851B" stroke="#F6851B" stroke-width="0.633507" stroke-linecap="round" stroke-linejoin="round"/>
<path d="M136.305 46.9374L125.794 50.0124L122.297 60.9056H131.622L137.873 60.986L133.13 51.7409L136.305 46.9374Z" fill="#F6851B" stroke="#F6851B" stroke-width="0.633507" stroke-linecap="round" stroke-linejoin="round"/>
<path d="M150.575 52.2433L151.238 40.6467L154.293 32.3864H140.727L143.741 40.6467L144.445 52.2433L144.686 55.9011L144.706 64.905H150.273L150.313 55.9011L150.575 52.2433Z" fill="#F6851B" stroke="#F6851B" stroke-width="0.633507" stroke-linecap="round" stroke-linejoin="round"/>
</g>
</g>
<defs>
<filter id="filter0_d_426_520" x="209.455" y="23.5778" width="87.4667" height="87.4667" filterUnits="userSpaceOnUse" color-interpolation-filters="sRGB">
<feFlood flood-opacity="0" result="BackgroundImageFix"/>
<feColorMatrix in="SourceAlpha" type="matrix" values="0 0 0 0 0 0 0 0 0 0 0 0 0 0 0 0 0 0 127 0" result="hardAlpha"/>
<feOffset dy="3.64444"/>
<feGaussianBlur stdDeviation="8.2"/>
<feComposite in2="hardAlpha" operator="out"/>
<feColorMatrix type="matrix" values="0 0 0 0 0 0 0 0 0 0 0 0 0 0 0 0 0 0 0.25 0"/>
<feBlend mode="normal" in2="BackgroundImageFix" result="effect1_dropShadow_426_520"/>
<feBlend mode="normal" in="SourceGraphic" in2="effect1_dropShadow_426_520" result="shape"/>
</filter>
<filter id="filter1_d_426_520" x="0.811543" y="31.7776" width="82" height="82" filterUnits="userSpaceOnUse" color-interpolation-filters="sRGB">
<feFlood flood-opacity="0" result="BackgroundImageFix"/>
<feColorMatrix in="SourceAlpha" type="matrix" values="0 0 0 0 0 0 0 0 0 0 0 0 0 0 0 0 0 0 127 0" result="hardAlpha"/>
<feOffset dy="9.11111"/>
<feGaussianBlur stdDeviation="6.83333"/>
<feComposite in2="hardAlpha" operator="out"/>
<feColorMatrix type="matrix" values="0 0 0 0 0 0 0 0 0 0 0 0 0 0 0 0 0 0 0.25 0"/>
<feBlend mode="normal" in2="BackgroundImageFix" result="effect1_dropShadow_426_520"/>
<feBlend mode="normal" in="SourceGraphic" in2="effect1_dropShadow_426_520" result="shape"/>
</filter>
<filter id="filter2_d_426_520" x="34.5226" y="17.1999" width="99.3111" height="99.3111" filterUnits="userSpaceOnUse" color-interpolation-filters="sRGB">
<feFlood flood-opacity="0" result="BackgroundImageFix"/>
<feColorMatrix in="SourceAlpha" type="matrix" values="0 0 0 0 0 0 0 0 0 0 0 0 0 0 0 0 0 0 127 0" result="hardAlpha"/>
<feOffset dy="10.0222"/>
<feGaussianBlur stdDeviation="7.74444"/>
<feComposite in2="hardAlpha" operator="out"/>
<feColorMatrix type="matrix" values="0 0 0 0 0 0 0 0 0 0 0 0 0 0 0 0 0 0 0.25 0"/>
<feBlend mode="normal" in2="BackgroundImageFix" result="effect1_dropShadow_426_520"/>
<feBlend mode="normal" in="SourceGraphic" in2="effect1_dropShadow_426_520" result="shape"/>
</filter>
<filter id="filter3_d_426_520" x="153.189" y="12.8666" width="104.333" height="104.333" filterUnits="userSpaceOnUse" color-interpolation-filters="sRGB">
<feFlood flood-opacity="0" result="BackgroundImageFix"/>
<feColorMatrix in="SourceAlpha" type="matrix" values="0 0 0 0 0 0 0 0 0 0 0 0 0 0 0 0 0 0 127 0" result="hardAlpha"/>
<feOffset dy="8.2"/>
<feGaussianBlur stdDeviation="9"/>
<feComposite in2="hardAlpha" operator="out"/>
<feColorMatrix type="matrix" values="0 0 0 0 0 0 0 0 0 0 0 0 0 0 0 0 0 0 0.25 0"/>
<feBlend mode="normal" in2="BackgroundImageFix" result="effect1_dropShadow_426_520"/>
<feBlend mode="normal" in="SourceGraphic" in2="effect1_dropShadow_426_520" result="shape"/>
</filter>
<filter id="filter4_d_426_520" x="86.4552" y="0.799877" width="122.089" height="122.089" filterUnits="userSpaceOnUse" color-interpolation-filters="sRGB">
<feFlood flood-opacity="0" result="BackgroundImageFix"/>
<feColorMatrix in="SourceAlpha" type="matrix" values="0 0 0 0 0 0 0 0 0 0 0 0 0 0 0 0 0 0 127 0" result="hardAlpha"/>
<feOffset dy="11.8444"/>
<feGaussianBlur stdDeviation="10.0222"/>
<feComposite in2="hardAlpha" operator="out"/>
<feColorMatrix type="matrix" values="0 0 0 0 0 0 0 0 0 0 0 0 0 0 0 0 0 0 0.25 0"/>
<feBlend mode="normal" in2="BackgroundImageFix" result="effect1_dropShadow_426_520"/>
<feBlend mode="normal" in="SourceGraphic" in2="effect1_dropShadow_426_520" result="shape"/>
</filter>
<linearGradient id="paint0_linear_426_520" x1="84.1782" y1="22.6666" x2="84.1782" y2="90.9999" gradientUnits="userSpaceOnUse">
<stop stop-color="#534BB1"/>
<stop offset="1" stop-color="#551BF9"/>
</linearGradient>
<linearGradient id="paint1_linear_426_520" x1="84.9789" y1="34.9452" x2="84.9789" y2="80.3228" gradientUnits="userSpaceOnUse">
<stop stop-color="white"/>
<stop offset="1" stop-color="white" stop-opacity="0.82"/>
</linearGradient>
<clipPath id="clip0_426_520">
<rect x="225.855" y="36.3334" width="54.6667" height="54.6667" rx="27.3333" fill="white"/>
</clipPath>
<clipPath id="clip1_426_520">
<rect x="14.4782" y="36.3332" width="54.6667" height="54.6667" rx="27.3333" fill="white"/>
</clipPath>
<clipPath id="clip2_426_520">
<rect x="50.0115" y="22.6666" width="68.3333" height="68.3333" rx="34.1667" fill="white"/>
</clipPath>
<clipPath id="clip3_426_520">
<rect x="171.189" y="22.6666" width="68.3333" height="68.3333" rx="34.1667" fill="white"/>
</clipPath>
<clipPath id="clip4_426_520">
<rect x="106.5" y="8.99988" width="82" height="82" rx="41" fill="white"/>
</clipPath>
</defs>
</svg>
